<svg aria-hidden="true" style="position: absolute; width: 0; height: 0; overflow: hidden;" version="1.1" xmlns="http://www.w3.org/2000/svg" xmlns:xlink="http://www.w3.org/1999/xlink">
<defs>
<symbol id="ac" viewBox="0 0 32 32">
<path d="M14.416 3.284c-2.718 0.477-4.779 2.512-5.32 5.253-0.050 0.248-0.078 0.576-0.066 0.73 0.056 0.676 0.781 1.066 1.415 0.76 0.336-0.163 0.475-0.411 0.634-1.122 0.229-1.034 0.584-1.719 1.228-2.373 0.86-0.874 2.004-1.334 3.274-1.319 0.013-0 0.028-0 0.043-0 0.696 0 1.352 0.173 1.927 0.479l-0.022-0.011c1.716 0.836 2.728 2.77 2.408 4.604-0.306 1.755-1.446 3.019-3.219 3.576l-0.469 0.147-15.59 0.053-0.216 0.144c-0.263 0.179-0.434 0.477-0.434 0.815 0 0.381 0.217 0.711 0.534 0.875l0.005 0.003 0.237 0.115 15.571-0.030 0.626-0.17c2.685-0.727 4.575-2.923 4.848-5.634 0.017-0.172 0.027-0.372 0.027-0.575 0-1.001-0.237-1.947-0.658-2.785l0.016 0.036c-0.884-1.79-2.517-3.095-4.478-3.518l-0.043-0.008c-0.552-0.12-1.723-0.144-2.278-0.046zM26.388 12.098c-2.080 0.282-3.772 1.788-4.246 3.778-0.142 0.602-0.16 1.324-0.037 1.555 0.178 0.324 0.518 0.54 0.908 0.54 0.214 0 0.412-0.065 0.577-0.176l-0.004 0.002c0.274-0.191 0.408-0.488 0.45-0.999 0.061-0.722 0.293-1.25 0.781-1.771 0.552-0.592 1.18-0.9 1.971-0.969 1.394-0.12 2.77 0.848 3.119 2.198 0.394 1.527-0.479 3.048-2.051 3.575-0.282 0.094-0.85 0.101-13.741 0.126-12.618 0.024-13.459 0.032-13.617 0.118-0.644 0.352-0.656 1.27-0.024 1.699l0.194 0.13 10.191 0.027c7.275 0.019 10.24 0.045 10.353 0.086 0.685 0.253 1.238 0.714 1.511 1.258 0.751 1.497-0.178 3.266-1.854 3.525-1.314 0.203-2.544-0.661-2.848-2.004-0.098-0.432-0.288-0.704-0.592-0.842-0.653-0.298-1.42 0.166-1.42 0.86 0 0.546 0.328 1.442 0.759 2.072 0.576 0.842 1.569 1.522 2.63 1.803 0.568 0.151 1.724 0.138 2.294-0.026 2.75-0.784 4.103-3.74 2.853-6.234l-0.245-0.49 1.737-0.021c1.67-0.021 1.759-0.027 2.256-0.16 1.71-0.456 3.040-1.75 3.538-3.405l0.009-0.036c0.13-0.426 0.144-0.548 0.144-1.322 0-0.778-0.014-0.897-0.147-1.335-0.55-1.824-2.064-3.191-3.936-3.518l-0.030-0.004c-0.273-0.044-0.588-0.069-0.908-0.069-0.203 0-0.403 0.010-0.601 0.030l0.025-0.002z"></path>
</symbol>
<symbol id="alcove" viewBox="0 0 46 32">
<path d="M2.608 1.8h12.409c0.105 0 0.203-0.040 0.278-0.112l1.192-1.163c0.346-0.338 0.807-0.524 1.297-0.524h18.817c0.876 0 1.69 0.425 2.176 1.136l2.255 3.3c0.32 0.468 0.349 1.067 0.077 1.564s-0.8 0.805-1.377 0.805h-9.698v0.956h4.967c1.317 0 2.501 0.763 3.018 1.945l2.908 6.65 2.548 0.994c1.36 0.531 2.24 1.797 2.24 3.227v6.158c0 0.918-0.766 1.666-1.708 1.666h-2.964c-0.345 2.039-2.164 3.599-4.35 3.599s-4.005-1.561-4.35-3.599h-16.203c-0.345 2.039-2.164 3.599-4.35 3.599s-4.005-1.561-4.35-3.599h-5.921c-0.837 0-1.518-0.664-1.518-1.481v-22.576c0-1.403 1.17-2.544 2.608-2.544zM36.692 30.594c1.637 0 2.969-1.299 2.969-2.896s-1.332-2.896-2.969-2.896c-1.637 0-2.969 1.299-2.969 2.896s1.332 2.896 2.969 2.896zM30.034 26.995h2.307c0.006-0.035 0.013-0.070 0.020-0.105 0.005-0.024 0.009-0.047 0.014-0.071 0.012-0.055 0.025-0.11 0.039-0.164 0.003-0.011 0.005-0.023 0.009-0.034 0.017-0.066 0.036-0.13 0.057-0.195 0.006-0.019 0.013-0.037 0.019-0.056 0.015-0.045 0.031-0.090 0.047-0.134 0.009-0.024 0.018-0.047 0.028-0.071 0.015-0.039 0.030-0.078 0.047-0.116 0.010-0.025 0.022-0.050 0.033-0.075 0.016-0.037 0.032-0.072 0.050-0.108 0.013-0.025 0.025-0.050 0.038-0.075 0.017-0.034 0.036-0.069 0.054-0.103 0.013-0.025 0.027-0.049 0.041-0.074 0.019-0.034 0.039-0.067 0.059-0.101 0.014-0.024 0.029-0.047 0.043-0.071 0.022-0.034 0.044-0.067 0.066-0.101 0.015-0.022 0.029-0.044 0.044-0.065 0.025-0.035 0.051-0.070 0.077-0.105 0.013-0.018 0.026-0.037 0.040-0.055 0.036-0.046 0.072-0.090 0.109-0.135 0.005-0.007 0.010-0.014 0.016-0.020 0.043-0.051 0.087-0.1 0.132-0.148 0.014-0.015 0.028-0.029 0.043-0.044 0.032-0.033 0.063-0.066 0.096-0.099 0.018-0.018 0.038-0.035 0.056-0.053 0.029-0.028 0.059-0.056 0.090-0.084 0.020-0.018 0.041-0.036 0.062-0.054 0.030-0.026 0.060-0.051 0.090-0.077l0.066-0.052c0.031-0.024 0.062-0.048 0.093-0.071 0.022-0.017 0.045-0.034 0.069-0.050 0.032-0.023 0.064-0.045 0.097-0.068 0.023-0.015 0.046-0.031 0.069-0.046 0.034-0.023 0.069-0.044 0.104-0.065 0.022-0.014 0.045-0.028 0.068-0.041 0.038-0.023 0.077-0.044 0.116-0.065 0.020-0.011 0.040-0.023 0.059-0.033 0.056-0.029 0.112-0.057 0.168-0.084 0.005-0.002 0.009-0.004 0.013-0.006 0.061-0.029 0.123-0.056 0.186-0.082 0.020-0.008 0.041-0.016 0.061-0.024 0.043-0.017 0.086-0.034 0.13-0.050 0.025-0.009 0.050-0.017 0.075-0.026 0.040-0.014 0.080-0.027 0.12-0.039 0.027-0.008 0.054-0.016 0.082-0.024 0.039-0.011 0.078-0.023 0.118-0.033 0.028-0.007 0.056-0.015 0.085-0.021 0.039-0.009 0.078-0.018 0.118-0.026 0.029-0.006 0.058-0.012 0.087-0.018 0.040-0.007 0.081-0.015 0.122-0.021 0.029-0.005 0.057-0.010 0.086-0.014 0.042-0.006 0.085-0.011 0.128-0.016 0.027-0.003 0.055-0.007 0.082-0.009 0.047-0.004 0.095-0.008 0.143-0.011 0.024-0.002 0.047-0.004 0.070-0.005 0.072-0.004 0.144-0.006 0.216-0.006s0.144 0.002 0.216 0.006c0.024 0.001 0.047 0.003 0.070 0.005 0.048 0.003 0.096 0.006 0.143 0.011 0.028 0.002 0.055 0.006 0.082 0.009 0.043 0.005 0.086 0.010 0.128 0.016 0.029 0.004 0.058 0.008 0.087 0.014 0.041 0.006 0.081 0.014 0.122 0.021 0.029 0.006 0.058 0.012 0.087 0.018 0.040 0.008 0.079 0.017 0.118 0.026 0.029 0.007 0.057 0.014 0.085 0.021 0.039 0.010 0.078 0.021 0.118 0.033 0.028 0.008 0.055 0.016 0.082 0.024 0.040 0.012 0.080 0.026 0.12 0.039 0.025 0.009 0.050 0.017 0.075 0.026 0.044 0.016 0.087 0.033 0.13 0.050 0.020 0.008 0.041 0.016 0.061 0.024 0.062 0.026 0.125 0.053 0.186 0.082 0.005 0.002 0.009 0.005 0.013 0.006 0.057 0.027 0.112 0.055 0.168 0.084 0.020 0.011 0.039 0.022 0.059 0.033 0.039 0.021 0.078 0.043 0.116 0.065 0.023 0.014 0.045 0.028 0.068 0.041 0.035 0.021 0.070 0.043 0.104 0.065 0.023 0.015 0.046 0.031 0.069 0.046 0.033 0.023 0.065 0.044 0.097 0.068 0.023 0.016 0.046 0.033 0.069 0.050 0.031 0.024 0.062 0.047 0.093 0.071l0.066 0.052c0.031 0.025 0.061 0.051 0.090 0.077 0.021 0.018 0.041 0.036 0.062 0.054 0.031 0.028 0.060 0.056 0.090 0.084 0.018 0.017 0.037 0.035 0.056 0.053 0.033 0.033 0.065 0.066 0.096 0.099 0.014 0.015 0.029 0.029 0.043 0.044 0.045 0.048 0.089 0.098 0.132 0.148 0.006 0.007 0.011 0.014 0.016 0.020 0.037 0.044 0.073 0.089 0.109 0.135 0.014 0.018 0.027 0.037 0.040 0.055 0.026 0.035 0.052 0.070 0.077 0.105 0.015 0.021 0.029 0.043 0.044 0.065 0.022 0.034 0.044 0.067 0.066 0.101 0.014 0.024 0.029 0.047 0.043 0.071 0.020 0.033 0.040 0.067 0.059 0.101 0.014 0.025 0.028 0.049 0.041 0.074 0.018 0.034 0.037 0.069 0.054 0.103 0.013 0.025 0.025 0.050 0.038 0.075 0.017 0.036 0.033 0.071 0.050 0.108 0.011 0.025 0.023 0.049 0.033 0.075 0.017 0.038 0.032 0.077 0.047 0.116 0.010 0.024 0.019 0.047 0.028 0.071 0.016 0.044 0.032 0.089 0.047 0.134 0.006 0.019 0.013 0.038 0.019 0.056 0.020 0.064 0.039 0.129 0.056 0.195 0.003 0.011 0.006 0.023 0.009 0.034 0.014 0.055 0.027 0.109 0.039 0.164 0.005 0.024 0.009 0.047 0.014 0.071 0.007 0.035 0.014 0.069 0.020 0.105h2.963c0.147 0 0.266-0.116 0.266-0.26v-2.946h-1.124v-1.406h1.124v-1.806c0-0.851-0.523-1.606-1.333-1.922l-2.697-1.052h-10.209v9.392zM30.034 16.197h9.257l-2.598-5.939c-0.29-0.662-0.954-1.090-1.692-1.090h-4.967v7.030zM11.789 30.594c1.637 0 2.969-1.299 2.969-2.896s-1.332-2.896-2.969-2.896c-0.051 0-0.102 0.001-0.153 0.004-1.364 0.067-2.488 1.038-2.756 2.309-0.010 0.047-0.019 0.095-0.027 0.143-0.015 0.096-0.025 0.193-0.030 0.291-0.003 0.049-0.004 0.099-0.004 0.149 0 1.597 1.332 2.896 2.969 2.896zM1.441 22.383h1.124v1.406h-1.124v3.131c0 0.041 0.035 0.075 0.077 0.075h5.92c0.006-0.035 0.013-0.069 0.020-0.104 0.005-0.024 0.009-0.048 0.014-0.072 0.012-0.054 0.024-0.107 0.038-0.16 0.003-0.012 0.006-0.025 0.009-0.038 0.017-0.065 0.036-0.129 0.056-0.193 0.006-0.020 0.013-0.039 0.020-0.058 0.015-0.044 0.030-0.089 0.046-0.132 0.009-0.025 0.019-0.048 0.028-0.072 0.015-0.038 0.031-0.077 0.046-0.114 0.011-0.026 0.022-0.051 0.034-0.076 0.016-0.036 0.032-0.071 0.050-0.106 0.012-0.026 0.025-0.051 0.038-0.076 0.017-0.034 0.035-0.068 0.054-0.102 0.014-0.025 0.028-0.049 0.042-0.074 0.020-0.034 0.039-0.067 0.059-0.1 0.014-0.024 0.029-0.048 0.044-0.071 0.021-0.034 0.043-0.067 0.066-0.1 0.014-0.023 0.029-0.045 0.044-0.066 0.025-0.035 0.051-0.070 0.076-0.104 0.014-0.019 0.028-0.038 0.042-0.057 0.035-0.044 0.070-0.088 0.106-0.132 0.006-0.008 0.012-0.016 0.018-0.023 0.043-0.051 0.087-0.1 0.132-0.148 0.014-0.015 0.029-0.030 0.043-0.045 0.032-0.033 0.063-0.066 0.096-0.098 0.018-0.018 0.037-0.035 0.056-0.053 0.029-0.028 0.059-0.056 0.089-0.083 0.020-0.018 0.041-0.036 0.062-0.055 0.029-0.025 0.059-0.051 0.090-0.075 0.022-0.018 0.044-0.036 0.066-0.053 0.030-0.024 0.061-0.047 0.092-0.071 0.022-0.017 0.046-0.034 0.069-0.050 0.032-0.023 0.064-0.045 0.096-0.067 0.024-0.016 0.047-0.031 0.070-0.047 0.034-0.023 0.069-0.044 0.103-0.065 0.023-0.014 0.046-0.028 0.069-0.042 0.038-0.023 0.077-0.044 0.116-0.065 0.020-0.011 0.040-0.023 0.061-0.033 0.055-0.029 0.11-0.057 0.167-0.083 0.005-0.002 0.009-0.005 0.014-0.007 0.061-0.029 0.123-0.056 0.186-0.082 0.020-0.008 0.041-0.016 0.061-0.024 0.043-0.017 0.086-0.034 0.13-0.050 0.025-0.009 0.050-0.017 0.076-0.026 0.039-0.014 0.079-0.027 0.119-0.039 0.027-0.008 0.055-0.016 0.082-0.024 0.039-0.011 0.078-0.023 0.118-0.033 0.028-0.007 0.056-0.015 0.085-0.021 0.039-0.009 0.078-0.018 0.118-0.026 0.029-0.006 0.058-0.012 0.087-0.018 0.040-0.007 0.081-0.015 0.122-0.021 0.029-0.005 0.057-0.010 0.086-0.014 0.042-0.006 0.085-0.011 0.128-0.016 0.027-0.003 0.055-0.007 0.082-0.009 0.047-0.004 0.095-0.008 0.143-0.011 0.024-0.002 0.047-0.004 0.070-0.005 0.072-0.004 0.144-0.006 0.216-0.006s0.144 0.002 0.216 0.006c0.024 0.001 0.047 0.003 0.070 0.005 0.048 0.003 0.096 0.006 0.143 0.011 0.028 0.002 0.055 0.006 0.082 0.009 0.043 0.005 0.086 0.010 0.128 0.016 0.029 0.004 0.058 0.008 0.086 0.014 0.041 0.006 0.081 0.014 0.122 0.021 0.029 0.006 0.058 0.012 0.087 0.018 0.040 0.008 0.079 0.017 0.118 0.026 0.029 0.007 0.057 0.014 0.085 0.021 0.039 0.010 0.078 0.021 0.118 0.033 0.027 0.008 0.055 0.016 0.082 0.024 0.040 0.012 0.080 0.026 0.119 0.039 0.025 0.009 0.051 0.017 0.076 0.026 0.044 0.016 0.086 0.033 0.13 0.050 0.020 0.008 0.041 0.016 0.061 0.024 0.062 0.026 0.124 0.053 0.186 0.082 0.005 0.002 0.010 0.005 0.014 0.007 0.056 0.026 0.112 0.054 0.167 0.083 0.021 0.011 0.040 0.022 0.060 0.033 0.039 0.021 0.078 0.043 0.116 0.065 0.023 0.014 0.046 0.028 0.069 0.042 0.035 0.021 0.069 0.042 0.103 0.065 0.023 0.015 0.046 0.031 0.070 0.047 0.032 0.022 0.065 0.044 0.096 0.067 0.023 0.016 0.046 0.033 0.069 0.050 0.031 0.024 0.062 0.047 0.092 0.071 0.023 0.017 0.044 0.035 0.066 0.053 0.031 0.025 0.061 0.050 0.090 0.076 0.021 0.018 0.042 0.036 0.062 0.054 0.030 0.028 0.060 0.056 0.090 0.084 0.018 0.017 0.037 0.035 0.056 0.053 0.032 0.032 0.065 0.065 0.096 0.098 0.014 0.015 0.029 0.029 0.043 0.044 0.045 0.048 0.089 0.098 0.132 0.148 0.006 0.007 0.012 0.015 0.017 0.021 0.036 0.044 0.073 0.088 0.107 0.134 0.014 0.018 0.028 0.037 0.042 0.055 0.026 0.035 0.052 0.070 0.077 0.105 0.015 0.021 0.029 0.044 0.044 0.066 0.023 0.033 0.044 0.066 0.066 0.1 0.015 0.024 0.029 0.047 0.044 0.071 0.020 0.033 0.040 0.067 0.059 0.101 0.014 0.025 0.028 0.049 0.041 0.074 0.019 0.034 0.037 0.069 0.055 0.103 0.013 0.025 0.025 0.050 0.037 0.075 0.017 0.036 0.034 0.072 0.050 0.108 0.012 0.025 0.023 0.049 0.033 0.075 0.017 0.038 0.032 0.077 0.047 0.116 0.009 0.024 0.018 0.047 0.028 0.071 0.017 0.045 0.032 0.090 0.047 0.135 0.006 0.019 0.013 0.037 0.019 0.055 0.020 0.064 0.039 0.129 0.057 0.195 0.002 0.010 0.005 0.021 0.007 0.031 0.014 0.056 0.028 0.111 0.040 0.168 0.005 0.023 0.009 0.046 0.013 0.069 0.007 0.035 0.014 0.070 0.021 0.106h12.453v-20.893c0-0.388 0.323-0.703 0.721-0.703h10.419c0.018 0 0.073 0 0.107-0.062s0.004-0.106-0.006-0.12l-2.255-3.3c-0.218-0.319-0.583-0.51-0.977-0.51h-18.817c-0.105 0-0.204 0.040-0.278 0.112l-1.192 1.163c-0.346 0.338-0.807 0.524-1.297 0.524h-12.409c-0.643 0-1.167 0.511-1.167 1.138v18.039z"></path>
<path d="M20.116 7.198h4.558c0.921 0 1.67 0.731 1.67 1.629v15.046c0 0.388-0.323 0.703-0.721 0.703h-6.456c-0.398 0-0.721-0.315-0.721-0.703v-15.046c-0.001-0.899 0.748-1.629 1.669-1.629zM19.887 23.17h5.015v-8.267h-5.015v8.267zM19.887 13.497h5.015v-4.669c0-0.123-0.103-0.223-0.229-0.223h-4.558c-0.126 0-0.229 0.1-0.229 0.223v4.669h0.001zM5.536 7.198h8.814c1.019 0 1.848 0.809 1.848 1.802v4.1c0 0.994-0.829 1.802-1.848 1.802h-8.815c-1.019 0-1.848-0.809-1.848-1.802v-4.1c0.001-0.994 0.83-1.802 1.848-1.802zM5.129 13.1c0 0.218 0.182 0.396 0.406 0.396h8.814c0.224 0 0.406-0.178 0.406-0.396v-4.1c0-0.218-0.182-0.396-0.406-0.396h-8.815c-0.224 0-0.406 0.178-0.406 0.396v4.1h0.001z"></path>
</symbol>
<symbol id="arrow" viewBox="0 0 32 32">
<path d="M20.943 5.724c0.521 0.521 0.521 1.365 0 1.886l-8.391 8.391 8.391 8.391c0.521 0.521 0.521 1.365 0 1.886s-1.365 0.521-1.886 0l-9.333-9.333c-0.521-0.521-0.521-1.365 0-1.886l9.333-9.333c0.521-0.521 1.365-0.521 1.886 0z"></path>
</symbol>
<symbol id="automatic" viewBox="0 0 32 32">
<path stroke-linejoin="round" stroke-linecap="round" stroke-miterlimit="4" stroke-width="2.4" d="M22.667 14.667h2c0.53 0 1.039-0.211 1.414-0.586s0.586-0.884 0.586-1.414-0.211-1.039-0.586-1.414c-0.375-0.375-0.884-0.586-1.414-0.586h-2v6.667M22.667 22.667v5.333h1.333c0.707 0 1.386-0.281 1.886-0.781s0.781-1.178 0.781-1.886c0-0.707-0.281-1.385-0.781-1.886s-1.178-0.781-1.886-0.781h-1.333zM4 6.667c0 0.707 0.281 1.386 0.781 1.886s1.178 0.781 1.886 0.781c0.707 0 1.386-0.281 1.886-0.781s0.781-1.178 0.781-1.886c0-0.707-0.281-1.386-0.781-1.886s-1.178-0.781-1.886-0.781c-0.707 0-1.386 0.281-1.886 0.781s-0.781 1.178-0.781 1.886z"></path>
<path stroke-linejoin="round" stroke-linecap="round" stroke-miterlimit="4" stroke-width="2.4" d="M6.667 9.333v4c0 0.354 0.14 0.693 0.391 0.943s0.589 0.391 0.943 0.391h4M12 14.667v9.333c0 0.354 0.14 0.693 0.391 0.943s0.589 0.391 0.943 0.391h4M12 14.667h5.333"></path>
</symbol>
<symbol id="bed" viewBox="0 0 32 32">
<path stroke-linejoin="round" stroke-linecap="round" stroke-miterlimit="4" stroke-width="2.24" d="M3 26v-7c0.003-1.060 0.426-2.076 1.175-2.825s1.765-1.172 2.825-1.175h18c1.060 0.003 2.076 0.426 2.825 1.175s1.172 1.765 1.175 2.825v7M24 15h-18v-6.5c0.002-0.662 0.266-1.297 0.734-1.766s1.103-0.732 1.766-0.734h15c0.662 0.002 1.297 0.266 1.766 0.734s0.732 1.103 0.734 1.766v6.5h-2z"></path>
<path stroke-linejoin="round" stroke-linecap="round" stroke-miterlimit="4" stroke-width="2.24" d="M3 26v-0.5c0.001-0.397 0.16-0.778 0.441-1.059s0.662-0.44 1.059-0.441h23c0.397 0.001 0.778 0.16 1.059 0.441s0.44 0.662 0.441 1.059v0.5M7 15v-1c0.002-0.53 0.213-1.038 0.587-1.413s0.883-0.586 1.413-0.587h5c0.53 0.002 1.038 0.213 1.413 0.587s0.586 0.883 0.587 1.413M16 14v1M16 14c0.001-0.53 0.213-1.038 0.587-1.413s0.883-0.586 1.413-0.587h5c0.53 0.002 1.038 0.213 1.413 0.587s0.586 0.883 0.587 1.413v1"></path>
</symbol>
<symbol id="calendar" viewBox="0 0 32 32">
<path stroke-linejoin="round" stroke-linecap="round" stroke-miterlimit="4" stroke-width="2.4" d="M25.333 5.333h-18.667c-1.473 0-2.667 1.194-2.667 2.667v18.667c0 1.473 1.194 2.667 2.667 2.667h18.667c1.473 0 2.667-1.194 2.667-2.667v-18.667c0-1.473-1.194-2.667-2.667-2.667z"></path>
<path stroke-linejoin="round" stroke-linecap="round" stroke-miterlimit="4" stroke-width="2.4" d="M21.334 2.667v5.333"></path>
<path stroke-linejoin="round" stroke-linecap="round" stroke-miterlimit="4" stroke-width="2.4" d="M10.666 2.667v5.333"></path>
<path stroke-linejoin="round" stroke-linecap="round" stroke-miterlimit="4" stroke-width="2.4" d="M4 13.333h24"></path>
</symbol>
<symbol id="cd" viewBox="0 0 32 32">
<path stroke-linejoin="miter" stroke-linecap="butt" stroke-miterlimit="4" stroke-width="2.4" d="M16 28c6.627 0 12-5.373 12-12s-5.373-12-12-12c-6.627 0-12 5.373-12 12s5.373 12 12 12z"></path>
<path stroke-linejoin="miter" stroke-linecap="round" stroke-miterlimit="4" stroke-width="2.4" d="M8.667 16c0-4.050 3.283-7.333 7.333-7.333"></path>
<path stroke-linejoin="miter" stroke-linecap="butt" stroke-miterlimit="4" stroke-width="2.4" d="M16 19.333c1.841 0 3.333-1.492 3.333-3.333s-1.492-3.333-3.333-3.333c-1.841 0-3.333 1.492-3.333 3.333s1.492 3.333 3.333 3.333z"></path>
</symbol>
<symbol id="close" viewBox="0 0 32 32">
<path stroke-linejoin="round" stroke-linecap="round" stroke-miterlimit="4" stroke-width="3" d="M24 8l-16 16"></path>
<path stroke-linejoin="round" stroke-linecap="round" stroke-miterlimit="4" stroke-width="3" d="M8 8l16 16"></path>
</symbol>
<symbol id="conditioner" viewBox="0 0 32 32">
<path stroke-linejoin="round" stroke-linecap="round" stroke-miterlimit="4" stroke-width="2.4" d="M28.571 1.143h-25.143c-0.606 0-1.188 0.241-1.616 0.669s-0.669 1.010-0.669 1.616v11.429c0 0.606 0.241 1.188 0.669 1.616s1.010 0.669 1.616 0.669h25.143c0.606 0 1.188-0.241 1.616-0.669s0.67-1.010 0.67-1.616v-11.429c0-0.606-0.241-1.188-0.67-1.616s-1.010-0.669-1.616-0.669z"></path>
<path stroke-linejoin="round" stroke-linecap="round" stroke-miterlimit="4" stroke-width="2.4" d="M25.143 17.143v-4.571c0-0.606-0.241-1.188-0.67-1.616s-1.010-0.669-1.616-0.669h-13.714c-0.606 0-1.188 0.241-1.616 0.669s-0.669 1.010-0.669 1.616v4.571M5.714 28.572h0.229c0.849 0 1.663-0.337 2.263-0.937s0.937-1.414 0.937-2.263v-2.514M26.286 28.572h-0.229c-0.849 0-1.663-0.337-2.263-0.937s-0.937-1.414-0.937-2.263v-2.514M16 30.857v-8"></path>
</symbol>
<symbol id="freezer" viewBox="0 0 32 32">
<path stroke-linejoin="round" stroke-linecap="round" stroke-miterlimit="4" stroke-width="2.0800" d="M23.4 3h-14.793c-1.105 0-2 0.895-2 2v20.387c0 1.104 0.895 2 2 2h14.793c1.104 0 2-0.896 2-2v-20.387c0-1.105-0.896-2-2-2z"></path>
<path stroke-linejoin="round" stroke-linecap="round" stroke-miterlimit="4" stroke-width="2.0800" d="M6.607 13.127h18.787M10.313 10.567v-4.040M10.313 19.44v-4.040M8.427 27.387v0.7c0 0.241 0.095 0.472 0.265 0.643s0.4 0.268 0.642 0.27h1.647c0.242 0 0.475-0.096 0.646-0.268s0.268-0.404 0.268-0.646v-0.7M20.1 27.387v0.7c0 0.242 0.096 0.474 0.268 0.646s0.404 0.268 0.646 0.268h1.653c0.242 0 0.474-0.096 0.646-0.268s0.268-0.404 0.268-0.646v-0.7"></path>
</symbol>
<symbol id="fully-integrated" viewBox="0 0 46 32">
<path d="M2.608 1.8h12.409c0.105 0 0.203-0.040 0.278-0.112l1.192-1.163c0.346-0.338 0.807-0.524 1.297-0.524h18.817c0.876 0 1.69 0.425 2.176 1.136l2.255 3.3c0.32 0.468 0.349 1.067 0.077 1.564s-0.8 0.805-1.377 0.805h-9.698v0.956h4.967c1.317 0 2.501 0.763 3.018 1.945l2.908 6.65 2.548 0.994c1.36 0.531 2.24 1.797 2.24 3.227v6.158c0 0.918-0.766 1.666-1.708 1.666h-2.964c-0.345 2.039-2.164 3.599-4.35 3.599s-4.005-1.561-4.35-3.599h-16.203c-0.345 2.039-2.164 3.599-4.35 3.599s-4.005-1.561-4.35-3.599h-5.921c-0.837 0-1.518-0.664-1.518-1.481v-22.576c0-1.403 1.17-2.544 2.608-2.544zM36.692 30.594c1.637 0 2.969-1.299 2.969-2.896s-1.332-2.896-2.969-2.896c-1.637 0-2.969 1.299-2.969 2.896s1.332 2.896 2.969 2.896zM30.034 26.995h2.307c0.006-0.035 0.013-0.070 0.020-0.105 0.005-0.024 0.009-0.047 0.014-0.071 0.012-0.055 0.025-0.11 0.039-0.164 0.003-0.011 0.005-0.023 0.009-0.034 0.017-0.066 0.036-0.13 0.057-0.195 0.006-0.019 0.013-0.037 0.019-0.056 0.015-0.045 0.031-0.090 0.047-0.134 0.009-0.024 0.018-0.047 0.028-0.071 0.015-0.039 0.030-0.078 0.047-0.116 0.010-0.025 0.022-0.050 0.033-0.075 0.016-0.037 0.032-0.072 0.050-0.108 0.013-0.025 0.025-0.050 0.038-0.075 0.017-0.034 0.036-0.069 0.054-0.103 0.013-0.025 0.027-0.049 0.041-0.074 0.019-0.034 0.039-0.067 0.059-0.101 0.014-0.024 0.029-0.047 0.043-0.071 0.022-0.034 0.044-0.067 0.066-0.101 0.015-0.022 0.029-0.044 0.044-0.065 0.025-0.035 0.051-0.070 0.077-0.105 0.013-0.018 0.026-0.037 0.040-0.055 0.036-0.046 0.072-0.090 0.109-0.135 0.005-0.007 0.010-0.014 0.016-0.020 0.043-0.051 0.087-0.1 0.132-0.148 0.014-0.015 0.028-0.029 0.043-0.044 0.032-0.033 0.063-0.066 0.096-0.099 0.018-0.018 0.038-0.035 0.056-0.053 0.029-0.028 0.059-0.056 0.090-0.084 0.020-0.018 0.041-0.036 0.062-0.054 0.030-0.026 0.060-0.051 0.090-0.077l0.066-0.052c0.031-0.024 0.062-0.048 0.093-0.071 0.022-0.017 0.045-0.034 0.069-0.050 0.032-0.023 0.064-0.045 0.097-0.068 0.023-0.015 0.046-0.031 0.069-0.046 0.034-0.023 0.069-0.044 0.104-0.065 0.022-0.014 0.045-0.028 0.068-0.041 0.038-0.023 0.077-0.044 0.116-0.065 0.020-0.011 0.040-0.023 0.059-0.033 0.056-0.029 0.112-0.057 0.168-0.084 0.005-0.002 0.009-0.004 0.013-0.006 0.061-0.029 0.123-0.056 0.186-0.082 0.020-0.008 0.041-0.016 0.061-0.024 0.043-0.017 0.086-0.034 0.13-0.050 0.025-0.009 0.050-0.017 0.075-0.026 0.040-0.014 0.080-0.027 0.12-0.039 0.027-0.008 0.054-0.016 0.082-0.024 0.039-0.011 0.078-0.023 0.118-0.033 0.028-0.007 0.056-0.015 0.085-0.021 0.039-0.009 0.078-0.018 0.118-0.026 0.029-0.006 0.058-0.012 0.087-0.018 0.040-0.007 0.081-0.015 0.122-0.021 0.029-0.005 0.057-0.010 0.086-0.014 0.042-0.006 0.085-0.011 0.128-0.016 0.027-0.003 0.055-0.007 0.082-0.009 0.047-0.004 0.095-0.008 0.143-0.011 0.024-0.002 0.047-0.004 0.070-0.005 0.072-0.004 0.144-0.006 0.216-0.006s0.144 0.002 0.216 0.006c0.024 0.001 0.047 0.003 0.070 0.005 0.048 0.003 0.096 0.006 0.143 0.011 0.028 0.002 0.055 0.006 0.082 0.009 0.043 0.005 0.086 0.010 0.128 0.016 0.029 0.004 0.058 0.008 0.087 0.014 0.041 0.006 0.081 0.014 0.122 0.021 0.029 0.006 0.058 0.012 0.087 0.018 0.040 0.008 0.079 0.017 0.118 0.026 0.029 0.007 0.057 0.014 0.085 0.021 0.039 0.010 0.078 0.021 0.118 0.033 0.028 0.008 0.055 0.016 0.082 0.024 0.040 0.012 0.080 0.026 0.12 0.039 0.025 0.009 0.050 0.017 0.075 0.026 0.044 0.016 0.087 0.033 0.13 0.050 0.020 0.008 0.041 0.016 0.061 0.024 0.062 0.026 0.125 0.053 0.186 0.082 0.005 0.002 0.009 0.005 0.013 0.006 0.057 0.027 0.112 0.055 0.168 0.084 0.020 0.011 0.039 0.022 0.059 0.033 0.039 0.021 0.078 0.043 0.116 0.065 0.023 0.014 0.045 0.028 0.068 0.041 0.035 0.021 0.070 0.043 0.104 0.065 0.023 0.015 0.046 0.031 0.069 0.046 0.033 0.023 0.065 0.044 0.097 0.068 0.023 0.016 0.046 0.033 0.069 0.050 0.031 0.024 0.062 0.047 0.093 0.071l0.066 0.052c0.031 0.025 0.061 0.051 0.090 0.077 0.021 0.018 0.041 0.036 0.062 0.054 0.031 0.028 0.060 0.056 0.090 0.084 0.018 0.017 0.037 0.035 0.056 0.053 0.033 0.033 0.065 0.066 0.096 0.099 0.014 0.015 0.029 0.029 0.043 0.044 0.045 0.048 0.089 0.098 0.132 0.148 0.006 0.007 0.011 0.014 0.016 0.020 0.037 0.044 0.073 0.089 0.109 0.135 0.014 0.018 0.027 0.037 0.040 0.055 0.026 0.035 0.052 0.070 0.077 0.105 0.015 0.021 0.029 0.043 0.044 0.065 0.022 0.034 0.044 0.067 0.066 0.101 0.014 0.024 0.029 0.047 0.043 0.071 0.020 0.033 0.040 0.067 0.059 0.101 0.014 0.025 0.028 0.049 0.041 0.074 0.018 0.034 0.037 0.069 0.054 0.103 0.013 0.025 0.025 0.050 0.038 0.075 0.017 0.036 0.033 0.071 0.050 0.108 0.011 0.025 0.023 0.049 0.033 0.075 0.017 0.038 0.032 0.077 0.047 0.116 0.010 0.024 0.019 0.047 0.028 0.071 0.016 0.044 0.032 0.089 0.047 0.134 0.006 0.019 0.013 0.038 0.019 0.056 0.020 0.064 0.039 0.129 0.056 0.195 0.003 0.011 0.006 0.023 0.009 0.034 0.014 0.055 0.027 0.109 0.039 0.164 0.005 0.024 0.009 0.047 0.014 0.071 0.007 0.035 0.014 0.069 0.020 0.105h2.963c0.147 0 0.266-0.116 0.266-0.26v-2.946h-1.124v-1.406h1.124v-1.806c0-0.851-0.523-1.606-1.333-1.922l-2.697-1.052h-10.209v9.392zM30.034 16.197h9.257l-2.598-5.939c-0.29-0.662-0.954-1.090-1.692-1.090h-4.967v7.030zM11.789 30.594c1.637 0 2.969-1.299 2.969-2.896s-1.332-2.896-2.969-2.896c-0.051 0-0.102 0.001-0.153 0.004-1.364 0.067-2.488 1.038-2.756 2.309-0.010 0.047-0.019 0.095-0.027 0.143-0.015 0.096-0.025 0.193-0.030 0.291-0.003 0.049-0.004 0.099-0.004 0.149 0 1.597 1.332 2.896 2.969 2.896zM1.441 22.383h1.124v1.406h-1.124v3.131c0 0.041 0.035 0.075 0.077 0.075h5.92c0.006-0.035 0.013-0.069 0.020-0.104 0.005-0.024 0.009-0.048 0.014-0.072 0.012-0.054 0.024-0.107 0.038-0.16 0.003-0.012 0.006-0.025 0.009-0.038 0.017-0.065 0.036-0.129 0.056-0.193 0.006-0.020 0.013-0.039 0.020-0.058 0.015-0.044 0.030-0.089 0.046-0.132 0.009-0.025 0.019-0.048 0.028-0.072 0.015-0.038 0.031-0.077 0.046-0.114 0.011-0.026 0.022-0.051 0.034-0.076 0.016-0.036 0.032-0.071 0.050-0.106 0.012-0.026 0.025-0.051 0.038-0.076 0.017-0.034 0.035-0.068 0.054-0.102 0.014-0.025 0.028-0.049 0.042-0.074 0.020-0.034 0.039-0.067 0.059-0.1 0.014-0.024 0.029-0.048 0.044-0.071 0.021-0.034 0.043-0.067 0.066-0.1 0.014-0.023 0.029-0.045 0.044-0.066 0.025-0.035 0.051-0.070 0.076-0.104 0.014-0.019 0.028-0.038 0.042-0.057 0.035-0.044 0.070-0.088 0.106-0.132 0.006-0.008 0.012-0.016 0.018-0.023 0.043-0.051 0.087-0.1 0.132-0.148 0.014-0.015 0.029-0.030 0.043-0.045 0.032-0.033 0.063-0.066 0.096-0.098 0.018-0.018 0.037-0.035 0.056-0.053 0.029-0.028 0.059-0.056 0.089-0.083 0.020-0.018 0.041-0.036 0.062-0.055 0.029-0.025 0.059-0.051 0.090-0.075 0.022-0.018 0.044-0.036 0.066-0.053 0.030-0.024 0.061-0.047 0.092-0.071 0.022-0.017 0.046-0.034 0.069-0.050 0.032-0.023 0.064-0.045 0.096-0.067 0.024-0.016 0.047-0.031 0.070-0.047 0.034-0.023 0.069-0.044 0.103-0.065 0.023-0.014 0.046-0.028 0.069-0.042 0.038-0.023 0.077-0.044 0.116-0.065 0.020-0.011 0.040-0.023 0.061-0.033 0.055-0.029 0.11-0.057 0.167-0.083 0.005-0.002 0.009-0.005 0.014-0.007 0.061-0.029 0.123-0.056 0.186-0.082 0.020-0.008 0.041-0.016 0.061-0.024 0.043-0.017 0.086-0.034 0.13-0.050 0.025-0.009 0.050-0.017 0.076-0.026 0.039-0.014 0.079-0.027 0.119-0.039 0.027-0.008 0.055-0.016 0.082-0.024 0.039-0.011 0.078-0.023 0.118-0.033 0.028-0.007 0.056-0.015 0.085-0.021 0.039-0.009 0.078-0.018 0.118-0.026 0.029-0.006 0.058-0.012 0.087-0.018 0.040-0.007 0.081-0.015 0.122-0.021 0.029-0.005 0.057-0.010 0.086-0.014 0.042-0.006 0.085-0.011 0.128-0.016 0.027-0.003 0.055-0.007 0.082-0.009 0.047-0.004 0.095-0.008 0.143-0.011 0.024-0.002 0.047-0.004 0.070-0.005 0.072-0.004 0.144-0.006 0.216-0.006s0.144 0.002 0.216 0.006c0.024 0.001 0.047 0.003 0.070 0.005 0.048 0.003 0.096 0.006 0.143 0.011 0.028 0.002 0.055 0.006 0.082 0.009 0.043 0.005 0.086 0.010 0.128 0.016 0.029 0.004 0.058 0.008 0.086 0.014 0.041 0.006 0.081 0.014 0.122 0.021 0.029 0.006 0.058 0.012 0.087 0.018 0.040 0.008 0.079 0.017 0.118 0.026 0.029 0.007 0.057 0.014 0.085 0.021 0.039 0.010 0.078 0.021 0.118 0.033 0.027 0.008 0.055 0.016 0.082 0.024 0.040 0.012 0.080 0.026 0.119 0.039 0.025 0.009 0.051 0.017 0.076 0.026 0.044 0.016 0.086 0.033 0.13 0.050 0.020 0.008 0.041 0.016 0.061 0.024 0.062 0.026 0.124 0.053 0.186 0.082 0.005 0.002 0.010 0.005 0.014 0.007 0.056 0.026 0.112 0.054 0.167 0.083 0.021 0.011 0.040 0.022 0.060 0.033 0.039 0.021 0.078 0.043 0.116 0.065 0.023 0.014 0.046 0.028 0.069 0.042 0.035 0.021 0.069 0.042 0.103 0.065 0.023 0.015 0.046 0.031 0.070 0.047 0.032 0.022 0.065 0.044 0.096 0.067 0.023 0.016 0.046 0.033 0.069 0.050 0.031 0.024 0.062 0.047 0.092 0.071 0.023 0.017 0.044 0.035 0.066 0.053 0.031 0.025 0.061 0.050 0.090 0.076 0.021 0.018 0.042 0.036 0.062 0.054 0.030 0.028 0.060 0.056 0.090 0.084 0.018 0.017 0.037 0.035 0.056 0.053 0.032 0.032 0.065 0.065 0.096 0.098 0.014 0.015 0.029 0.029 0.043 0.044 0.045 0.048 0.089 0.098 0.132 0.148 0.006 0.007 0.012 0.015 0.017 0.021 0.036 0.044 0.073 0.088 0.107 0.134 0.014 0.018 0.028 0.037 0.042 0.055 0.026 0.035 0.052 0.070 0.077 0.105 0.015 0.021 0.029 0.044 0.044 0.066 0.023 0.033 0.044 0.066 0.066 0.1 0.015 0.024 0.029 0.047 0.044 0.071 0.020 0.033 0.040 0.067 0.059 0.101 0.014 0.025 0.028 0.049 0.041 0.074 0.019 0.034 0.037 0.069 0.055 0.103 0.013 0.025 0.025 0.050 0.037 0.075 0.017 0.036 0.034 0.072 0.050 0.108 0.012 0.025 0.023 0.049 0.033 0.075 0.017 0.038 0.032 0.077 0.047 0.116 0.009 0.024 0.018 0.047 0.028 0.071 0.017 0.045 0.032 0.090 0.047 0.135 0.006 0.019 0.013 0.037 0.019 0.055 0.020 0.064 0.039 0.129 0.057 0.195 0.002 0.010 0.005 0.021 0.007 0.031 0.014 0.056 0.028 0.111 0.040 0.168 0.005 0.023 0.009 0.046 0.013 0.069 0.007 0.035 0.014 0.070 0.021 0.106h12.453v-20.893c0-0.388 0.323-0.703 0.721-0.703h10.419c0.018 0 0.073 0 0.107-0.062s0.004-0.106-0.006-0.12l-2.255-3.3c-0.218-0.319-0.583-0.51-0.977-0.51h-18.817c-0.105 0-0.204 0.040-0.278 0.112l-1.192 1.163c-0.346 0.338-0.807 0.524-1.297 0.524h-12.409c-0.643 0-1.167 0.511-1.167 1.138v18.039z"></path>
<path d="M20.116 7.198h4.558c0.921 0 1.67 0.731 1.67 1.629v15.046c0 0.388-0.323 0.703-0.721 0.703h-6.456c-0.398 0-0.721-0.315-0.721-0.703v-15.046c-0.001-0.899 0.748-1.629 1.669-1.629zM19.887 23.17h5.015v-8.267h-5.015v8.267zM19.887 13.497h5.015v-4.669c0-0.123-0.103-0.223-0.229-0.223h-4.558c-0.126 0-0.229 0.1-0.229 0.223l0.001 4.669z"></path>
</symbol>
<symbol id="gas" viewBox="0 0 32 32">
<path d="M25.072 13.991c-0.368-0.453-0.816-0.846-1.232-1.239-1.072-0.907-2.288-1.556-3.311-2.508-2.384-2.206-2.912-5.848-1.392-8.644-1.52 0.348-2.848 1.133-3.983 1.995-4.143 3.143-5.775 8.689-3.823 13.449 0.064 0.151 0.128 0.302 0.128 0.499 0 0.332-0.24 0.635-0.56 0.756-0.368 0.151-0.752 0.060-1.056-0.181-0.091-0.071-0.167-0.159-0.224-0.257-1.808-2.161-2.096-5.259-0.88-7.737-2.672 2.055-4.127 5.531-3.919 8.81 0.096 0.756 0.192 1.511 0.464 2.267 0.224 0.907 0.656 1.813 1.136 2.614 1.728 2.614 4.719 4.488 7.935 4.866 3.423 0.408 7.087-0.181 9.71-2.418 2.927-2.508 3.951-6.528 2.448-9.974l-0.208-0.393c-0.336-0.695-1.232-1.904-1.232-1.904zM20.017 23.512c-0.448 0.363-1.184 0.756-1.76 0.907-1.792 0.604-3.583-0.242-4.639-1.239 1.904-0.423 3.039-1.753 3.375-3.098 0.272-1.209-0.24-2.206-0.448-3.37-0.192-1.118-0.16-2.070 0.272-3.113 0.304 0.574 0.624 1.148 1.008 1.602 1.232 1.511 3.167 2.176 3.583 4.231 0.064 0.212 0.096 0.423 0.096 0.65 0.048 1.239-0.528 2.599-1.488 3.43z"></path>
</symbol>
<symbol id="heart" viewBox="0 0 32 32">
<path d="M8.72 2.509c-1.201 0.079-2.309 0.405-3.298 0.927l0.045-0.022c-0.873 0.424-1.62 0.959-2.263 1.599l0-0c-1.407 1.392-2.26 3.067-2.569 5.040-0.087 0.549-0.087 2.011 0 2.56 0.242 1.568 0.855 2.96 1.747 4.129l-0.016-0.022c0.4 0.537 12.481 12.651 12.86 12.896 0.252 0.161 0.292 0.171 0.775 0.171s0.523-0.009 0.775-0.171c0.379-0.245 12.46-12.359 12.86-12.896 0.875-1.147 1.488-2.539 1.725-4.056l0.007-0.051c0.088-0.549 0.087-2.071-0.001-2.587-0.511-2.996-2.221-5.324-4.885-6.655-1.211-0.604-2.445-0.88-3.92-0.876-2.349 0.007-4.435 0.853-6.12 2.484l-0.44 0.425-0.44-0.425c-1.582-1.545-3.748-2.499-6.137-2.499-0.247 0-0.492 0.010-0.734 0.030l0.032-0.002zM10.88 5.731c1.207 0.335 1.821 0.733 3.173 2.057 0.557 0.545 1.109 1.051 1.227 1.121 0.187 0.115 0.277 0.131 0.72 0.131s0.533-0.016 0.72-0.129c0.117-0.072 0.669-0.577 1.227-1.124 1.356-1.331 1.961-1.72 3.2-2.064 0.491-0.136 0.609-0.148 1.467-0.147 0.987 0 1.175 0.031 2 0.324 1.345 0.479 2.535 1.555 3.176 2.873 0.811 1.665 0.811 3.455 0 5.12-0.143 0.293-0.385 0.701-0.539 0.907s-2.748 2.845-5.765 5.867l-5.485 5.493-5.485-5.493c-3.017-3.021-5.612-5.661-5.765-5.867-0.186-0.26-0.365-0.557-0.521-0.867l-0.018-0.039c-0.381-0.746-0.605-1.627-0.605-2.56s0.224-1.814 0.62-2.592l-0.015 0.032c0.756-1.552 2.135-2.652 3.869-3.087 0.5-0.125 0.588-0.132 1.467-0.113 0.693 0.015 0.908 0.040 1.333 0.157z"></path>
</symbol>
<symbol id="heart-red" viewBox="0 0 32 32">
<path fill="#e44848" style="fill: var(--color1, #e44848); stroke: var(--color1, #e44848)" stroke="#e44848" stroke-linejoin="round" stroke-linecap="round" stroke-miterlimit="4" stroke-width="3.0667" d="M27.787 6.147c-0.681-0.681-1.49-1.222-2.379-1.591s-1.844-0.559-2.807-0.559-1.917 0.19-2.807 0.559c-0.89 0.369-1.699 0.909-2.38 1.591l-1.413 1.413-1.413-1.413c-1.376-1.376-3.241-2.148-5.187-2.148s-3.811 0.773-5.187 2.148c-1.376 1.376-2.148 3.241-2.148 5.187s0.773 3.811 2.148 5.187l11.787 11.787 11.787-11.787c0.681-0.681 1.222-1.49 1.591-2.38s0.559-1.844 0.559-2.807-0.19-1.917-0.559-2.807c-0.369-0.89-0.909-1.699-1.591-2.38z"></path>
</symbol>
<symbol id="hob" viewBox="0 0 32 32">
<path fill="none" stroke="#101828" style="stroke: var(--color2, #101828)" stroke-linejoin="miter" stroke-linecap="butt" stroke-miterlimit="4" stroke-width="2.4" d="M12 6.667h16c0.354 0 0.693 0.14 0.943 0.391s0.391 0.589 0.391 0.943v17.333c0 0.354-0.14 0.693-0.391 0.943s-0.589 0.391-0.943 0.391h-16M12 6.667h-8c-0.354 0-0.693 0.14-0.943 0.391s-0.39 0.589-0.39 0.943v17.333c0 0.354 0.14 0.693 0.39 0.943s0.589 0.391 0.943 0.391h8M12 6.667v20"></path>
<path fill="none" stroke="#101828" style="stroke: var(--color2, #101828)" stroke-linejoin="round" stroke-linecap="round" stroke-miterlimit="4" stroke-width="2.4" d="M7.333 11.333v2.667M24.667 10.667l-8 11.333"></path>
<path d="M8.667 18c0-0.736-0.597-1.333-1.333-1.333s-1.333 0.597-1.333 1.333c0 0.736 0.597 1.333 1.333 1.333s1.333-0.597 1.333-1.333z"></path>
<path d="M8.667 22c0-0.736-0.597-1.333-1.333-1.333s-1.333 0.597-1.333 1.333c0 0.736 0.597 1.333 1.333 1.333s1.333-0.597 1.333-1.333z"></path>
</symbol>
<symbol id="kitchen" viewBox="0 0 32 32">
<path stroke-linejoin="round" stroke-linecap="round" stroke-miterlimit="4" stroke-width="2.4" d="M25.333 20v-16c-6.421 6.125-6.697 11.092-6.667 16h6.667zM25.333 20v8h-1.333v-4M10.667 5.333v22.667M6.667 5.333v4c0 1.061 0.421 2.078 1.172 2.828s1.768 1.172 2.828 1.172c1.061 0 2.078-0.421 2.828-1.172s1.172-1.768 1.172-2.828v-4"></path>
</symbol>
<symbol id="map-pin" viewBox="0 0 29 32">
<path d="M13.392 0.173l-0.624 0.072c-3.318 0.381-6.52 2.17-8.667 4.843-1.797 2.231-2.884 5.099-2.884 8.221 0 0.767 0.066 1.518 0.191 2.249l-0.011-0.078c0.774 4.619 4.195 9.605 9.763 14.232 1.158 0.963 2.434 1.912 2.781 2.069 0.136 0.055 0.294 0.086 0.459 0.086s0.323-0.032 0.468-0.089l-0.009 0.003c0.49-0.222 2.507-1.789 3.933-3.053 2.304-2.043 4.355-4.35 5.76-6.48 2.459-3.723 3.41-7.262 2.901-10.8-0.645-4.389-3.38-8.023-7.145-9.903l-0.076-0.034c-1.169-0.604-2.529-1.044-3.965-1.244l-0.067-0.008c-0.456-0.069-2.438-0.13-2.808-0.086zM15.542 2.595c4.266 0.479 7.751 3.375 9.078 7.269l0.023 0.076c1.162 3.496 0.493 7.045-2.059 10.939-1.477 2.256-3.885 4.851-6.504 7.011-0.854 0.706-1.618 1.293-1.68 1.293s-0.826-0.587-1.68-1.293c-1.018-0.842-1.934-1.681-2.806-2.564l-0.004-0.004c-3.57-3.573-5.672-7.118-6.189-10.443-0.461-2.954 0.434-6.102 2.411-8.486 1.723-2.078 4.35-3.49 7.067-3.797 0.354-0.029 0.766-0.045 1.182-0.045 0.408 0 0.813 0.016 1.214 0.047l-0.053-0.003zM13.456 8.23c-1.95 0.355-3.555 1.846-4.082 3.795-0.115 0.429-0.13 0.562-0.13 1.294-0.002 0.68 0.014 0.883 0.101 1.224 0.474 1.908 1.947 3.381 3.818 3.847l0.036 0.008c0.589 0.149 1.811 0.149 2.4 0 1.907-0.474 3.381-1.947 3.847-3.818l0.008-0.036c0.086-0.341 0.102-0.544 0.101-1.224 0-0.733-0.014-0.866-0.13-1.294-0.53-1.963-2.139-3.451-4.107-3.795-0.28-0.040-0.603-0.064-0.931-0.064s-0.651 0.023-0.968 0.068l0.036-0.004zM15.048 10.616c0.382 0.080 0.888 0.347 1.208 0.637 0.618 0.56 0.928 1.248 0.928 2.059 0 0.837-0.242 1.427-0.816 2-0.571 0.568-1.17 0.816-1.968 0.816s-1.397-0.248-1.968-0.816c-0.574-0.573-0.816-1.163-0.816-2 0-0.797 0.307-1.493 0.898-2.032 0.702-0.642 1.563-0.867 2.534-0.664z"></path>
</symbol>
<symbol id="microwave" viewBox="0 0 32 32">
<path stroke-linejoin="round" stroke-linecap="round" stroke-miterlimit="4" stroke-width="2.24" d="M29.714 5.714h-27.429c-0.303 0-0.594 0.12-0.808 0.335s-0.335 0.505-0.335 0.808v18.286c0 0.303 0.12 0.594 0.335 0.808s0.505 0.335 0.808 0.335h27.429c0.303 0 0.594-0.12 0.808-0.335s0.335-0.505 0.335-0.808v-18.286c0-0.303-0.12-0.594-0.335-0.808s-0.505-0.335-0.808-0.335z"></path>
<path stroke-linejoin="round" stroke-linecap="round" stroke-miterlimit="4" stroke-width="2.24" d="M25.143 11.428h1.143M25.143 16h1.143M19.428 10.286h-12.571c-0.303 0-0.594 0.12-0.808 0.335s-0.335 0.505-0.335 0.808v9.143c0 0.303 0.12 0.594 0.335 0.808s0.505 0.335 0.808 0.335h12.571c0.303 0 0.594-0.12 0.808-0.335s0.335-0.505 0.335-0.808v-9.143c0-0.303-0.12-0.594-0.335-0.808s-0.505-0.335-0.808-0.335z"></path>
</symbol>
<symbol id="petrol" viewBox="0 0 32 32">
<path d="M26.36 9.64l0.013-0.013-4.96-4.96-1.413 1.413 2.813 2.813c-1.253 0.48-2.147 1.68-2.147 3.107 0 0.438 0.086 0.871 0.254 1.276s0.413 0.772 0.723 1.081c0.625 0.625 1.473 0.976 2.357 0.976 0.48 0 0.92-0.107 1.333-0.28v9.613c0 0.354-0.14 0.693-0.391 0.943s-0.589 0.391-0.943 0.391c-0.354 0-0.693-0.14-0.943-0.391s-0.391-0.589-0.391-0.943v-6c0-0.707-0.281-1.386-0.781-1.886s-1.178-0.781-1.886-0.781h-1.333v-9.333c0-0.707-0.281-1.386-0.781-1.886s-1.178-0.781-1.886-0.781h-8c-0.707 0-1.386 0.281-1.886 0.781s-0.781 1.178-0.781 1.886v21.333h13.333v-10h2v6.667c0 0.884 0.351 1.732 0.976 2.357s1.473 0.976 2.357 0.976c0.438 0 0.871-0.086 1.276-0.254s0.772-0.413 1.081-0.723c0.309-0.309 0.555-0.677 0.723-1.081s0.254-0.838 0.254-1.276v-12.667c0-0.92-0.373-1.76-0.973-2.36zM16 18v7.333h-8v-9.333h8v2zM16 13.333h-8v-6.667h8v6.667zM24 13.333c-0.354 0-0.693-0.14-0.943-0.39s-0.391-0.589-0.391-0.943c0-0.354 0.14-0.693 0.391-0.943s0.589-0.39 0.943-0.39c0.354 0 0.693 0.14 0.943 0.39s0.391 0.589 0.391 0.943c0 0.354-0.14 0.693-0.391 0.943s-0.589 0.39-0.943 0.39z"></path>
</symbol>
<symbol id="radio" viewBox="0 0 32 32">
<path stroke-linejoin="miter" stroke-linecap="butt" stroke-miterlimit="4" stroke-width="2.0800" d="M2.667 18.667c0-5.028 0-7.543 1.563-9.104 1.561-1.563 4.076-1.563 9.104-1.563h5.333c5.028 0 7.543 0 9.104 1.563 1.563 1.561 1.563 4.076 1.563 9.104s0 7.543-1.563 9.104c-1.561 1.563-4.076 1.563-9.104 1.563h-5.333c-5.028 0-7.543 0-9.104-1.563-1.563-1.561-1.563-4.076-1.563-9.104z"></path>
<path stroke-linejoin="miter" stroke-linecap="butt" stroke-miterlimit="4" stroke-width="2.0800" d="M6.667 14.667c0-0.707 0.281-1.386 0.781-1.886s1.178-0.781 1.886-0.781h13.333c0.707 0 1.386 0.281 1.886 0.781s0.781 1.178 0.781 1.886-0.281 1.386-0.781 1.886c-0.5 0.5-1.178 0.781-1.886 0.781h-13.333c-0.707 0-1.386-0.281-1.886-0.781s-0.781-1.178-0.781-1.886zM12 22.667c0 0.53-0.211 1.039-0.586 1.414s-0.884 0.586-1.414 0.586-1.039-0.211-1.414-0.586c-0.375-0.375-0.586-0.884-0.586-1.414s0.211-1.039 0.586-1.414 0.884-0.586 1.414-0.586c0.53 0 1.039 0.211 1.414 0.586s0.586 0.884 0.586 1.414z"></path>
<path stroke-linejoin="miter" stroke-linecap="round" stroke-miterlimit="4" stroke-width="2.0800" d="M20 15.333v2M17.333 22.667h6.667M8.667 8l11.333-5.333"></path>
</symbol>
<symbol id="shower" viewBox="0 0 32 32">
<path stroke-linejoin="round" stroke-linecap="round" stroke-miterlimit="4" stroke-width="2.56" d="M5.333 5.333l3.333 3.333M18 8.667c-1.242-1.217-2.914-1.895-4.653-1.886s-3.404 0.703-4.634 1.933c-1.23 1.23-1.924 2.895-1.933 4.634s0.669 3.411 1.886 4.653M20 6.667l-13.333 13.333M18.667 22.667v0.013M13.333 21.333v0.013M17.333 17.333v0.013M21.333 13.333v0.013M14.667 26.667v0.013M22.667 18.667v0.013M26.667 14.667v0.013"></path>
</symbol>
<symbol id="star" viewBox="0 0 32 32">
<path stroke-linejoin="miter" stroke-linecap="butt" stroke-miterlimit="4" stroke-width="2.4" d="M12.4 9.394l3.6-6.822 3.6 6.822c0.318 0.603 0.899 1.025 1.571 1.141l7.601 1.315-5.376 5.532c-0.475 0.489-0.697 1.171-0.6 1.846l1.098 7.635-6.922-3.404c-0.612-0.301-1.329-0.301-1.941 0l-6.922 3.404 1.098-7.635c0.097-0.675-0.125-1.357-0.6-1.846l-5.376-5.532 7.601-1.315c0.672-0.116 1.252-0.538 1.571-1.141zM29.035 11.579v0zM7.767 27.031c0 0 0 0 0 0h-0z"></path>
</symbol>
<symbol id="toilet-paper" viewBox="0 0 32 32">
<path d="M24 4c1.939 0 3.269 1.647 4.040 3.313 0.761 1.653 1.224 3.811 1.287 6.145l0.007 0.541v12.667c0 0.18-0.036 0.357-0.106 0.523s-0.173 0.315-0.303 0.439c-0.13 0.125-0.283 0.222-0.451 0.285s-0.347 0.093-0.527 0.086l-0.165-0.019-3.781-0.629-3.781 0.629c-0.16 0.027-0.324 0.024-0.483-0.008l-0.157-0.041-3.579-1.193-3.579 1.193c-0.188 0.063-0.387 0.083-0.583 0.059s-0.385-0.092-0.552-0.197-0.309-0.248-0.414-0.415c-0.105-0.167-0.172-0.356-0.196-0.553l-0.009-0.159v-3.903c-0.708 0.733-1.595 1.236-2.667 1.236-1.939 0-3.269-1.647-4.040-3.313-0.819-1.78-1.293-4.145-1.293-6.687s0.473-4.907 1.293-6.687c0.735-1.592 1.981-3.164 3.78-3.303l0.26-0.011h16zM24 6.667h-12.291c0.12 0.213 0.229 0.429 0.329 0.647 0.821 1.78 1.295 4.145 1.295 6.687v10.817l2.245-0.749c0.274-0.091 0.569-0.091 0.843 0l3.687 1.229 3.673-0.613c0.144-0.024 0.293-0.024 0.437 0l2.448 0.409v-11.093c0-2.245-0.423-4.213-1.049-5.569-0.677-1.471-1.347-1.764-1.617-1.764zM8 6.667c-0.271 0-0.94 0.293-1.617 1.764-0.627 1.356-1.049 3.324-1.049 5.569s0.423 4.213 1.049 5.569c0.677 1.471 1.347 1.764 1.617 1.764s0.94-0.293 1.617-1.764c0.627-1.356 1.049-3.324 1.049-5.569s-0.423-4.213-1.049-5.569c-0.677-1.471-1.347-1.764-1.617-1.764zM8 11.333c0.736 0 1.333 1.193 1.333 2.667s-0.597 2.667-1.333 2.667c-0.736 0-1.333-1.193-1.333-2.667s0.597-2.667 1.333-2.667z"></path>
</symbol>
<symbol id="tv" viewBox="0 0 32 32">
<path stroke-linejoin="round" stroke-linecap="round" stroke-miterlimit="4" stroke-width="1.8" d="M24 26h-16c-2.216 0-4-1.784-4-4v-10c0-2.216 1.784-4 4-4h16c2.216 0 4 1.784 4 4v10c0 2.216-1.784 4-4 4z"></path>
<path stroke-linejoin="round" stroke-linecap="round" stroke-miterlimit="4" stroke-width="1.8" d="M12 30h8"></path>
<path stroke-linejoin="round" stroke-linecap="round" stroke-miterlimit="4" stroke-width="1.8" d="M16 8l6-6"></path>
<path stroke-linejoin="round" stroke-linecap="round" stroke-miterlimit="4" stroke-width="1.8" d="M16 8l-6-6"></path>
</symbol>
<symbol id="users" viewBox="0 0 32 32">
<path d="M9.067 24.133h-4.4c-0.267 0-0.4-0.133-0.533-0.267s-0.267-0.4-0.133-0.667c0.8-2.267 2.8-3.6 5.067-3.6 2.8 0 5.067-2.4 5.067-5.2s-2.267-5.467-5.067-5.467-5.067 2.4-5.067 5.333c0 1.333 0.533 2.667 1.333 3.6-1.733 0.933-3.067 2.4-3.867 4.4-0.267 0.933-0.133 2.133 0.533 3.067s1.6 1.467 2.667 1.467h4.4c0.8 0 1.333-0.533 1.333-1.333s-0.533-1.333-1.333-1.333zM6.667 14.267c0-1.467 1.067-2.533 2.4-2.533s2.4 1.2 2.4 2.533c0 1.467-1.067 2.533-2.4 2.533s-2.4-1.2-2.4-2.533z"></path>
<path d="M30.533 21.467c-0.933-2.533-2.8-4.4-4.933-5.467 1.2-1.067 1.867-2.667 1.867-4.533 0-3.467-2.667-6.267-5.867-6.267s-5.867 2.8-5.867 6.267c0 1.733 0.667 3.333 1.867 4.533-2.133 1.067-4 2.933-4.933 5.467-0.667 1.2-0.4 2.533 0.267 3.6s1.867 1.6 3.067 1.6h11.067c1.2 0 2.4-0.667 3.067-1.6 0.8-1.067 0.933-2.4 0.4-3.6zM18.267 11.6c0-2 1.467-3.6 3.2-3.6s3.2 1.6 3.2 3.6-1.467 3.6-3.2 3.6c-1.733 0-3.2-1.733-3.2-3.6zM27.867 23.6c-0.133 0.133-0.4 0.533-0.8 0.533h-11.067c-0.533 0-0.8-0.4-0.8-0.533-0.133-0.133-0.4-0.667-0.133-1.2 1.067-2.8 3.733-4.667 6.533-4.667s5.467 1.867 6.533 4.667c0.133 0.533-0.133 1.067-0.267 1.2z"></path>
</symbol>
<symbol id="van" viewBox="0 0 46 32">
<path d="M2.608 1.8h12.409c0.105 0 0.203-0.040 0.278-0.112l1.192-1.163c0.346-0.338 0.807-0.524 1.297-0.524h18.817c0.876 0 1.69 0.425 2.176 1.136l2.255 3.3c0.32 0.468 0.349 1.067 0.077 1.564s-0.8 0.805-1.377 0.805h-9.698v0.956h4.967c1.317 0 2.501 0.763 3.018 1.945l2.908 6.65 2.548 0.994c1.36 0.531 2.24 1.797 2.24 3.227v6.158c0 0.918-0.766 1.666-1.708 1.666h-2.964c-0.345 2.039-2.164 3.599-4.35 3.599s-4.005-1.561-4.35-3.599h-16.203c-0.345 2.039-2.164 3.599-4.35 3.599s-4.005-1.561-4.35-3.599h-5.921c-0.837 0-1.518-0.664-1.518-1.481v-22.576c0-1.403 1.17-2.544 2.608-2.544zM36.692 30.594c1.637 0 2.969-1.299 2.969-2.896s-1.332-2.896-2.969-2.896c-1.637 0-2.969 1.299-2.969 2.896s1.332 2.896 2.969 2.896zM30.034 26.995h2.307c0.006-0.035 0.013-0.070 0.020-0.105 0.005-0.024 0.009-0.047 0.014-0.071 0.012-0.055 0.025-0.11 0.039-0.164 0.003-0.011 0.005-0.023 0.009-0.034 0.017-0.066 0.036-0.13 0.057-0.195 0.006-0.019 0.013-0.037 0.019-0.056 0.015-0.045 0.031-0.090 0.047-0.134 0.009-0.024 0.018-0.047 0.028-0.071 0.015-0.039 0.030-0.078 0.047-0.116 0.010-0.025 0.022-0.050 0.033-0.075 0.016-0.037 0.032-0.072 0.050-0.108 0.013-0.025 0.025-0.050 0.038-0.075 0.017-0.034 0.036-0.069 0.054-0.103 0.013-0.025 0.027-0.049 0.041-0.074 0.019-0.034 0.039-0.067 0.059-0.101 0.014-0.024 0.029-0.047 0.043-0.071 0.022-0.034 0.044-0.067 0.066-0.101 0.015-0.022 0.029-0.044 0.044-0.065 0.025-0.035 0.051-0.070 0.077-0.105 0.013-0.018 0.026-0.037 0.040-0.055 0.036-0.046 0.072-0.090 0.109-0.135 0.005-0.007 0.010-0.014 0.016-0.020 0.043-0.051 0.087-0.1 0.132-0.148 0.014-0.015 0.028-0.029 0.043-0.044 0.032-0.033 0.063-0.066 0.096-0.099 0.018-0.018 0.038-0.035 0.056-0.053 0.029-0.028 0.059-0.056 0.090-0.084 0.020-0.018 0.041-0.036 0.062-0.054 0.030-0.026 0.060-0.051 0.090-0.077l0.066-0.052c0.031-0.024 0.062-0.048 0.093-0.071 0.022-0.017 0.045-0.034 0.069-0.050 0.032-0.023 0.064-0.045 0.097-0.068 0.023-0.015 0.046-0.031 0.069-0.046 0.034-0.023 0.069-0.044 0.104-0.065 0.022-0.014 0.045-0.028 0.068-0.041 0.038-0.023 0.077-0.044 0.116-0.065 0.020-0.011 0.040-0.023 0.059-0.033 0.056-0.029 0.112-0.057 0.168-0.084 0.005-0.002 0.009-0.004 0.013-0.006 0.061-0.029 0.123-0.056 0.186-0.082 0.020-0.008 0.041-0.016 0.061-0.024 0.043-0.017 0.086-0.034 0.13-0.050 0.025-0.009 0.050-0.017 0.075-0.026 0.040-0.014 0.080-0.027 0.12-0.039 0.027-0.008 0.054-0.016 0.082-0.024 0.039-0.011 0.078-0.023 0.118-0.033 0.028-0.007 0.056-0.015 0.085-0.021 0.039-0.009 0.078-0.018 0.118-0.026 0.029-0.006 0.058-0.012 0.087-0.018 0.040-0.007 0.081-0.015 0.122-0.021 0.029-0.005 0.057-0.010 0.086-0.014 0.042-0.006 0.085-0.011 0.128-0.016 0.027-0.003 0.055-0.007 0.082-0.009 0.047-0.004 0.095-0.008 0.143-0.011 0.024-0.002 0.047-0.004 0.070-0.005 0.072-0.004 0.144-0.006 0.216-0.006s0.144 0.002 0.216 0.006c0.024 0.001 0.047 0.003 0.070 0.005 0.048 0.003 0.096 0.006 0.143 0.011 0.028 0.002 0.055 0.006 0.082 0.009 0.043 0.005 0.086 0.010 0.128 0.016 0.029 0.004 0.058 0.008 0.087 0.014 0.041 0.006 0.081 0.014 0.122 0.021 0.029 0.006 0.058 0.012 0.087 0.018 0.040 0.008 0.079 0.017 0.118 0.026 0.029 0.007 0.057 0.014 0.085 0.021 0.039 0.010 0.078 0.021 0.118 0.033 0.028 0.008 0.055 0.016 0.082 0.024 0.040 0.012 0.080 0.026 0.12 0.039 0.025 0.009 0.050 0.017 0.075 0.026 0.044 0.016 0.087 0.033 0.13 0.050 0.020 0.008 0.041 0.016 0.061 0.024 0.062 0.026 0.125 0.053 0.186 0.082 0.005 0.002 0.009 0.005 0.013 0.006 0.057 0.027 0.112 0.055 0.168 0.084 0.020 0.011 0.039 0.022 0.059 0.033 0.039 0.021 0.078 0.043 0.116 0.065 0.023 0.014 0.045 0.028 0.068 0.041 0.035 0.021 0.070 0.043 0.104 0.065 0.023 0.015 0.046 0.031 0.069 0.046 0.033 0.023 0.065 0.044 0.097 0.068 0.023 0.016 0.046 0.033 0.069 0.050 0.031 0.024 0.062 0.047 0.093 0.071l0.066 0.052c0.031 0.025 0.061 0.051 0.090 0.077 0.021 0.018 0.041 0.036 0.062 0.054 0.031 0.028 0.060 0.056 0.090 0.084 0.018 0.017 0.037 0.035 0.056 0.053 0.033 0.033 0.065 0.066 0.096 0.099 0.014 0.015 0.029 0.029 0.043 0.044 0.045 0.048 0.089 0.098 0.132 0.148 0.006 0.007 0.011 0.014 0.016 0.020 0.037 0.044 0.073 0.089 0.109 0.135 0.014 0.018 0.027 0.037 0.040 0.055 0.026 0.035 0.052 0.070 0.077 0.105 0.015 0.021 0.029 0.043 0.044 0.065 0.022 0.034 0.044 0.067 0.066 0.101 0.014 0.024 0.029 0.047 0.043 0.071 0.020 0.033 0.040 0.067 0.059 0.101 0.014 0.025 0.028 0.049 0.041 0.074 0.018 0.034 0.037 0.069 0.054 0.103 0.013 0.025 0.025 0.050 0.038 0.075 0.017 0.036 0.033 0.071 0.050 0.108 0.011 0.025 0.023 0.049 0.033 0.075 0.017 0.038 0.032 0.077 0.047 0.116 0.010 0.024 0.019 0.047 0.028 0.071 0.016 0.044 0.032 0.089 0.047 0.134 0.006 0.019 0.013 0.038 0.019 0.056 0.020 0.064 0.039 0.129 0.056 0.195 0.003 0.011 0.006 0.023 0.009 0.034 0.014 0.055 0.027 0.109 0.039 0.164 0.005 0.024 0.009 0.047 0.014 0.071 0.007 0.035 0.014 0.069 0.020 0.105h2.963c0.147 0 0.266-0.116 0.266-0.26v-2.946h-1.124v-1.406h1.124v-1.806c0-0.851-0.523-1.606-1.333-1.922l-2.697-1.052h-10.209v9.392zM30.034 16.197h9.257l-2.598-5.939c-0.29-0.662-0.954-1.090-1.692-1.090h-4.967v7.030zM11.789 30.594c1.637 0 2.969-1.299 2.969-2.896s-1.332-2.896-2.969-2.896c-0.051 0-0.102 0.001-0.153 0.004-1.364 0.067-2.488 1.038-2.756 2.309-0.010 0.047-0.019 0.095-0.027 0.143-0.015 0.096-0.025 0.193-0.030 0.291-0.003 0.049-0.004 0.099-0.004 0.149 0 1.597 1.332 2.896 2.969 2.896zM1.441 22.383h1.124v1.406h-1.124v3.131c0 0.041 0.035 0.075 0.077 0.075h5.92c0.006-0.035 0.013-0.069 0.020-0.104 0.005-0.024 0.009-0.048 0.014-0.072 0.012-0.054 0.024-0.107 0.038-0.16 0.003-0.012 0.006-0.025 0.009-0.038 0.017-0.065 0.036-0.129 0.056-0.193 0.006-0.020 0.013-0.039 0.020-0.058 0.015-0.044 0.030-0.089 0.046-0.132 0.009-0.025 0.019-0.048 0.028-0.072 0.015-0.038 0.031-0.077 0.046-0.114 0.011-0.026 0.022-0.051 0.034-0.076 0.016-0.036 0.032-0.071 0.050-0.106 0.012-0.026 0.025-0.051 0.038-0.076 0.017-0.034 0.035-0.068 0.054-0.102 0.014-0.025 0.028-0.049 0.042-0.074 0.020-0.034 0.039-0.067 0.059-0.1 0.014-0.024 0.029-0.048 0.044-0.071 0.021-0.034 0.043-0.067 0.066-0.1 0.014-0.023 0.029-0.045 0.044-0.066 0.025-0.035 0.051-0.070 0.076-0.104 0.014-0.019 0.028-0.038 0.042-0.057 0.035-0.044 0.070-0.088 0.106-0.132 0.006-0.008 0.012-0.016 0.018-0.023 0.043-0.051 0.087-0.1 0.132-0.148 0.014-0.015 0.029-0.030 0.043-0.045 0.032-0.033 0.063-0.066 0.096-0.098 0.018-0.018 0.037-0.035 0.056-0.053 0.029-0.028 0.059-0.056 0.089-0.083 0.020-0.018 0.041-0.036 0.062-0.055 0.029-0.025 0.059-0.051 0.090-0.075 0.022-0.018 0.044-0.036 0.066-0.053 0.030-0.024 0.061-0.047 0.092-0.071 0.022-0.017 0.046-0.034 0.069-0.050 0.032-0.023 0.064-0.045 0.096-0.067 0.024-0.016 0.047-0.031 0.070-0.047 0.034-0.023 0.069-0.044 0.103-0.065 0.023-0.014 0.046-0.028 0.069-0.042 0.038-0.023 0.077-0.044 0.116-0.065 0.020-0.011 0.040-0.023 0.061-0.033 0.055-0.029 0.11-0.057 0.167-0.083 0.005-0.002 0.009-0.005 0.014-0.007 0.061-0.029 0.123-0.056 0.186-0.082 0.020-0.008 0.041-0.016 0.061-0.024 0.043-0.017 0.086-0.034 0.13-0.050 0.025-0.009 0.050-0.017 0.076-0.026 0.039-0.014 0.079-0.027 0.119-0.039 0.027-0.008 0.055-0.016 0.082-0.024 0.039-0.011 0.078-0.023 0.118-0.033 0.028-0.007 0.056-0.015 0.085-0.021 0.039-0.009 0.078-0.018 0.118-0.026 0.029-0.006 0.058-0.012 0.087-0.018 0.040-0.007 0.081-0.015 0.122-0.021 0.029-0.005 0.057-0.010 0.086-0.014 0.042-0.006 0.085-0.011 0.128-0.016 0.027-0.003 0.055-0.007 0.082-0.009 0.047-0.004 0.095-0.008 0.143-0.011 0.024-0.002 0.047-0.004 0.070-0.005 0.072-0.004 0.144-0.006 0.216-0.006s0.144 0.002 0.216 0.006c0.024 0.001 0.047 0.003 0.070 0.005 0.048 0.003 0.096 0.006 0.143 0.011 0.028 0.002 0.055 0.006 0.082 0.009 0.043 0.005 0.086 0.010 0.128 0.016 0.029 0.004 0.058 0.008 0.086 0.014 0.041 0.006 0.081 0.014 0.122 0.021 0.029 0.006 0.058 0.012 0.087 0.018 0.040 0.008 0.079 0.017 0.118 0.026 0.029 0.007 0.057 0.014 0.085 0.021 0.039 0.010 0.078 0.021 0.118 0.033 0.027 0.008 0.055 0.016 0.082 0.024 0.040 0.012 0.080 0.026 0.119 0.039 0.025 0.009 0.051 0.017 0.076 0.026 0.044 0.016 0.086 0.033 0.13 0.050 0.020 0.008 0.041 0.016 0.061 0.024 0.062 0.026 0.124 0.053 0.186 0.082 0.005 0.002 0.010 0.005 0.014 0.007 0.056 0.026 0.112 0.054 0.167 0.083 0.021 0.011 0.040 0.022 0.060 0.033 0.039 0.021 0.078 0.043 0.116 0.065 0.023 0.014 0.046 0.028 0.069 0.042 0.035 0.021 0.069 0.042 0.103 0.065 0.023 0.015 0.046 0.031 0.070 0.047 0.032 0.022 0.065 0.044 0.096 0.067 0.023 0.016 0.046 0.033 0.069 0.050 0.031 0.024 0.062 0.047 0.092 0.071 0.023 0.017 0.044 0.035 0.066 0.053 0.031 0.025 0.061 0.050 0.090 0.076 0.021 0.018 0.042 0.036 0.062 0.054 0.030 0.028 0.060 0.056 0.090 0.084 0.018 0.017 0.037 0.035 0.056 0.053 0.032 0.032 0.065 0.065 0.096 0.098 0.014 0.015 0.029 0.029 0.043 0.044 0.045 0.048 0.089 0.098 0.132 0.148 0.006 0.007 0.012 0.015 0.017 0.021 0.036 0.044 0.073 0.088 0.107 0.134 0.014 0.018 0.028 0.037 0.042 0.055 0.026 0.035 0.052 0.070 0.077 0.105 0.015 0.021 0.029 0.044 0.044 0.066 0.023 0.033 0.044 0.066 0.066 0.1 0.015 0.024 0.029 0.047 0.044 0.071 0.020 0.033 0.040 0.067 0.059 0.101 0.014 0.025 0.028 0.049 0.041 0.074 0.019 0.034 0.037 0.069 0.055 0.103 0.013 0.025 0.025 0.050 0.037 0.075 0.017 0.036 0.034 0.072 0.050 0.108 0.012 0.025 0.023 0.049 0.033 0.075 0.017 0.038 0.032 0.077 0.047 0.116 0.009 0.024 0.018 0.047 0.028 0.071 0.017 0.045 0.032 0.090 0.047 0.135 0.006 0.019 0.013 0.037 0.019 0.055 0.020 0.064 0.039 0.129 0.057 0.195 0.002 0.010 0.005 0.021 0.007 0.031 0.014 0.056 0.028 0.111 0.040 0.168 0.005 0.023 0.009 0.046 0.013 0.069 0.007 0.035 0.014 0.070 0.021 0.106h12.453v-20.893c0-0.388 0.323-0.703 0.721-0.703h10.419c0.018 0 0.073 0 0.107-0.062s0.004-0.106-0.006-0.12l-2.255-3.3c-0.218-0.319-0.583-0.51-0.977-0.51h-18.817c-0.105 0-0.204 0.040-0.278 0.112l-1.192 1.163c-0.346 0.338-0.807 0.524-1.297 0.524h-12.409c-0.643 0-1.167 0.511-1.167 1.138v18.039z"></path>
<path d="M5.536 7.198h8.814c1.019 0 1.848 0.809 1.848 1.802v4.1c0 0.994-0.829 1.802-1.848 1.802h-8.815c-1.019 0-1.848-0.809-1.848-1.802v-4.1c0.001-0.994 0.83-1.802 1.848-1.802zM5.129 13.1c0 0.218 0.182 0.396 0.406 0.396h8.814c0.224 0 0.406-0.178 0.406-0.396v-4.1c0-0.218-0.182-0.396-0.406-0.396h-8.815c-0.224 0-0.406 0.178-0.406 0.396l0.001 4.1z"></path>
</symbol>
<symbol id="water" viewBox="0 0 32 32">
<path stroke-linejoin="miter" stroke-linecap="butt" stroke-miterlimit="10" stroke-width="2.4" d="M25 20c0 5.523-3.477 9-9 9s-9-3.477-9-9c0-5.927 6.452-13.928 8.431-16.242 0.070-0.082 0.158-0.148 0.256-0.194s0.205-0.069 0.314-0.069c0.108 0 0.215 0.023 0.314 0.069s0.186 0.111 0.256 0.194c1.978 2.314 8.43 10.316 8.43 16.242z"></path>
<path stroke-linejoin="round" stroke-linecap="round" stroke-miterlimit="4" stroke-width="2.4" d="M21.5 20.5c0 1.193-0.474 2.338-1.318 3.182s-1.988 1.318-3.182 1.318"></path>
</symbol>
<symbol id="earth" viewBox="0 0 32 32">
<path fill="#50dd8e" style="fill: var(--color1, #50dd8e)" d="M16 31.467c-1.547 0-3.2-0.373-3.2-0.373-5.813-1.44-10.133-6.667-10.133-12.96 0-0.533 0-1.013 0.107-1.547 1.707-0.053 3.733 0.267 3.147 0.853-0.907 0.907-0.48 4.587 1.387 3.2s2.773-3.2 2.293-4.587c-0.48-1.387 3.2-1.813 3.2 0.48s-0.907 1.813-1.387 3.2c-0.48 1.387 0.48 1.387 0.907 1.867 0.48 0.48 1.813 1.387 0.48 4.587-1.067 2.4 1.44 4.16 3.2 5.28zM25.173 19.040c0.907 0.907-0.907 1.387-1.387 2.773s-2.293 1.387-2.773 0.907c-0.48-0.48-1.387-0.907-2.293-1.387s0-1.387 0.907-0.907c0.907 0.48 1.28-1.387 2.293-1.387 0.533 0 2.347-0.907 3.253 0zM21.067 5.813c3.787 1.547 6.72 4.853 7.84 8.853-1.707 0.747-4.427 1.067-5.067 0.747-0.907-0.48-0.907-2.773-2.56-2.827-0.64 0-1.387 2.773-2.293 3.2-0.907 0.48-1.387-1.387-2.293-2.773s1.387-2.773 2.293-2.773c0.907 0 0.907-2.293 0.907-2.773s-0.907-1.013-0.64-2.293c1.013 0.32 1.813 0.64 1.813 0.64zM16.587 26.507c0.48 0.48 0.907 1.387 0.48 1.813-0.48 0.48-1.387 0.48-1.813 0-0.693-0.64 0.907-2.293 1.333-1.813z"></path>
<path fill="#80d6fa" style="fill: var(--color2, #80d6fa)" d="M17.067 28.32c0.48-0.48 0-1.387-0.48-1.813-0.48-0.48-2.027 1.173-1.387 1.813 0.48 0.48 1.387 0.48 1.867 0v0zM23.787 21.813c0.48-1.387 2.293-1.867 1.387-2.773s-2.773 0-3.2 0c-1.013 0-1.387 1.813-2.293 1.387-0.907-0.48-1.813 0.48-0.907 0.907 0.907 0.48 1.813 0.907 2.293 1.387 0.427 0.48 2.293 0.48 2.72-0.907v0zM29.227 16.267c0.107 0.587 0.107 1.227 0.107 1.867 0 7.36-5.973 13.333-13.333 13.333-1.76-1.12-4.267-2.88-3.2-5.28 1.387-3.2 0-4.16-0.48-4.587-0.48-0.48-1.387-0.48-0.907-1.867s1.387-0.907 1.387-3.2c0-2.293-3.68-1.813-3.2-0.48 0.48 1.387-0.48 3.2-2.293 4.587s-2.293-2.293-1.387-3.2c0.64-0.64-1.387-0.96-3.147-0.853l0.32-1.653c0.373-1.76 1.76-4.373 2.933-5.547 0 0 0.693-0.747 1.493-1.333v0l2.080 2.613 2.133-2.667c0.427-0.48 1.28-1.92 1.547-3.093h0.107c0.907-0.16 2.453-0.107 2.667-0.107 1.12 0 2.24 0.16 3.253 0.427-0.267 1.28 0.64 1.813 0.64 2.293s0 2.773-0.907 2.773-3.2 1.387-2.293 2.773c0.907 1.387 1.387 3.2 2.293 2.773 0.907-0.48 1.653-3.253 2.293-3.2 1.6 0.053 1.6 2.4 2.56 2.827 0.64 0.32 3.36 0 5.067-0.747l0.267 1.547z"></path>
<path fill="#ff7474" style="fill: var(--color3, #ff7474)" d="M10.133 4.267c0-0.267-0.267-0.533-0.533-0.533s-0.533 0.267-0.533 0.533 0.267 0.533 0.533 0.533 0.533-0.267 0.533-0.533zM13.333 4.267c0 0.213-0.053 0.427-0.053 0.64-0.267 1.173-1.067 2.613-1.547 3.093l-2.133 2.667-2.080-2.613-0.053-0.053c-0.533-0.693-1.6-2.4-1.6-3.733 0-2.080 1.653-3.733 3.733-3.733s3.733 1.653 3.733 3.733z"></path>
<path fill="#51565f" style="fill: var(--color4, #51565f)" d="M16 31.733c-0.053 0-0.107 0-0.16-0.053-1.333-0.853-4.533-2.827-3.307-5.6 1.227-2.827 0.213-3.68-0.267-4.16-0.053-0.053-0.107-0.107-0.107-0.107-0.107-0.107-0.213-0.16-0.373-0.267-0.427-0.267-1.067-0.64-0.64-1.867 0.213-0.587 0.48-0.853 0.693-1.12 0.373-0.373 0.64-0.693 0.64-1.973 0-0.693-0.427-1.013-0.747-1.173-0.64-0.267-1.493-0.16-1.813 0.16-0.213 0.16-0.16 0.373-0.16 0.48 0.48 1.493-0.48 3.467-2.4 4.907-0.907 0.693-1.493 0.213-1.707-0.053-0.693-0.853-0.747-2.88 0-3.573 0.053-0.053 0.053-0.053 0.053-0.053-0.107-0.16-1.28-0.427-2.72-0.373-0.053 0.427-0.053 0.853-0.053 1.28 0 6.027 4.053 11.253 9.92 12.693 0.16 0.053 0.213 0.16 0.213 0.32-0.053 0.16-0.16 0.213-0.32 0.213-6.080-1.493-10.347-6.933-10.347-13.227 0-0.587 0.053-1.067 0.107-1.6 0 0 0-0.053 0-0.053 0-0.053 0.053-0.053 0.053-0.107 0.053-0.053 0.053-0.053 0.107-0.053 0 0 0.053 0 0.053 0 0.16 0 3.093-0.107 3.467 0.693 0.053 0.107 0.107 0.373-0.16 0.587-0.533 0.533-0.48 2.24 0.053 2.88 0.16 0.16 0.427 0.373 1.013-0.053 1.76-1.28 2.613-3.040 2.187-4.32-0.107-0.373-0.053-0.747 0.267-1.013 0.533-0.48 1.6-0.587 2.4-0.267 0.693 0.32 1.067 0.907 1.067 1.653 0 1.547-0.427 1.973-0.8 2.347-0.213 0.213-0.427 0.48-0.587 0.96-0.267 0.853 0 1.013 0.427 1.227 0.16 0.107 0.32 0.213 0.427 0.32 0.053 0.053 0.053 0.053 0.107 0.107 0.587 0.533 1.76 1.653 0.427 4.8-0.853 2.027 1.013 3.627 3.040 4.907 7.147-0.053 13.013-5.867 13.013-13.067 0-0.587-0.053-1.227-0.107-1.813 0-0.16 0.107-0.267 0.213-0.32 0.16 0 0.267 0.107 0.32 0.213 0.107 0.64 0.107 1.28 0.107 1.867 0 7.573-6.080 13.653-13.6 13.653zM16.16 28.96c-0.427 0-0.8-0.16-1.12-0.427-0.213-0.213-0.267-0.533-0.213-0.907 0.16-0.64 0.8-1.333 1.333-1.44 0.32-0.107 0.533 0.053 0.587 0.107 0.533 0.533 1.067 1.6 0.48 2.24v0c-0.267 0.267-0.64 0.427-1.067 0.427zM16.373 26.667c-0.107 0-0.533 0.213-0.8 0.693-0.16 0.267-0.32 0.64-0.16 0.8 0.373 0.373 1.12 0.373 1.44 0 0.32-0.32-0.053-1.067-0.48-1.493 0.053 0 0.053 0 0 0zM21.973 23.253c-0.48 0-0.907-0.107-1.12-0.373-0.427-0.427-1.333-0.907-2.24-1.333-0.587-0.267-0.587-0.747-0.48-1.013 0.213-0.48 0.907-0.693 1.6-0.373 0.267 0.107 0.427 0 0.853-0.533 0.32-0.427 0.747-0.907 1.333-0.907 0.053 0 0.267-0.053 0.48-0.107 0.8-0.213 2.133-0.587 2.933 0.213 0.213 0.213 0.32 0.427 0.32 0.693 0 0.427-0.32 0.747-0.693 1.12-0.373 0.32-0.747 0.747-0.907 1.227-0.213 0.693-0.747 1.12-1.493 1.333-0.16 0.053-0.373 0.053-0.587 0.053zM19.147 20.587c-0.267 0-0.427 0.107-0.48 0.213s0.107 0.213 0.213 0.32c0.907 0.48 1.867 0.96 2.347 1.44 0.16 0.16 0.64 0.267 1.227 0.16 0.32-0.053 0.907-0.32 1.12-0.96s0.693-1.12 1.067-1.44c0.267-0.267 0.533-0.533 0.533-0.693 0-0.107-0.053-0.213-0.16-0.32-0.587-0.587-1.653-0.267-2.4-0.053-0.267 0.107-0.48 0.16-0.64 0.16-0.373 0-0.64 0.32-0.907 0.693-0.373 0.427-0.8 1.013-1.493 0.64-0.16-0.16-0.267-0.16-0.427-0.16zM18.667 16.107c-0.64 0-1.067-0.853-1.493-1.707-0.213-0.427-0.427-0.853-0.693-1.28-0.32-0.48-0.32-1.013-0.053-1.547 0.533-0.96 1.92-1.653 2.56-1.653 0.32 0 0.64-0.64 0.64-2.507 0-0.053-0.107-0.213-0.213-0.373-0.213-0.373-0.587-0.907-0.48-1.707-1.12-0.267-2.347-0.373-3.52-0.32-0.16 0-0.267-0.107-0.267-0.267s0.107-0.267 0.267-0.267c1.28-0.053 2.613 0.107 3.893 0.427 0.16 0.053 0.213 0.16 0.213 0.32-0.16 0.747 0.107 1.173 0.373 1.547 0.16 0.213 0.267 0.427 0.267 0.64 0 2.027-0.373 3.040-1.173 3.040-0.533 0-1.707 0.587-2.133 1.333-0.213 0.373-0.16 0.693 0.053 1.013 0.267 0.427 0.533 0.907 0.747 1.28 0.533 1.067 0.853 1.547 1.227 1.387 0.373-0.213 0.8-1.013 1.12-1.707 0.48-0.907 0.747-1.547 1.28-1.547 1.12 0.053 1.6 1.013 1.973 1.813 0.213 0.48 0.427 0.907 0.693 1.067 0.48 0.267 2.88 0 4.64-0.64-1.12-3.787-3.947-6.933-7.627-8.427-0.16-0.053-0.213-0.213-0.16-0.373s0.213-0.213 0.373-0.16c3.893 1.6 6.88 4.96 8 9.013 0 0 0 0.053 0 0.053 0 0.053 0 0.053 0 0.107s-0.053 0.053-0.053 0.107c0 0-0.053 0.053-0.053 0.053-1.707 0.747-4.533 1.12-5.28 0.747-0.427-0.213-0.693-0.747-0.96-1.28-0.373-0.747-0.693-1.44-1.493-1.493-0.16 0.053-0.533 0.8-0.8 1.28-0.427 0.8-0.853 1.653-1.387 1.92-0.213 0.053-0.32 0.107-0.48 0.107zM3.040 15.2c0 0-0.053 0-0.053 0-0.16-0.053-0.213-0.16-0.213-0.32 0.427-1.867 1.813-4.48 2.987-5.653 0.107-0.107 0.267-0.107 0.373 0s0.107 0.267 0 0.373c-1.12 1.067-2.453 3.68-2.827 5.387 0 0.107-0.107 0.213-0.267 0.213zM9.6 10.933c-0.107 0-0.16-0.053-0.213-0.107l-2.133-2.667c-0.64-0.853-1.653-2.56-1.653-3.893 0-2.187 1.813-4 4-4s4 1.813 4 4c0 1.44-1.173 3.36-1.653 3.893l-2.133 2.667c-0.053 0.053-0.107 0.107-0.213 0.107zM9.6 0.8c-1.92 0-3.467 1.547-3.467 3.467 0 1.173 1.013 2.88 1.547 3.573l1.92 2.4 1.92-2.4c0.533-0.64 1.547-2.4 1.547-3.573 0-1.92-1.547-3.467-3.467-3.467zM9.6 5.067c-0.427 0-0.8-0.373-0.8-0.8s0.373-0.8 0.8-0.8 0.8 0.373 0.8 0.8-0.373 0.8-0.8 0.8zM9.6 4c-0.16 0-0.267 0.107-0.267 0.267s0.107 0.267 0.267 0.267 0.267-0.107 0.267-0.267-0.107-0.267-0.267-0.267z"></path>
</symbol>
<symbol id="pin" viewBox="0 0 32 32">
<path fill="#ec5044" style="fill: var(--color1, #ec5044)" d="M16 0.88c-6.613 0-12 5.2-12 11.587 0 0.005 0 0.011 0 0.017 0 2.617 0.896 5.025 2.398 6.934l-0.018-0.024 8.56 11.2c0.246 0.32 0.629 0.525 1.060 0.525s0.814-0.204 1.058-0.521l0.002-0.003 8.56-11.2c1.484-1.885 2.38-4.294 2.38-6.912 0-0.005 0-0.010 0-0.016v0.001c0-6.387-5.387-11.587-12-11.587z"></path>
<path fill="#a1362e" style="fill: var(--color2, #a1362e)" d="M16.913 8.087c-0.274-0.057-0.588-0.090-0.91-0.090-2.577 0-4.667 2.089-4.667 4.667s2.089 4.667 4.667 4.667c2.577 0 4.667-2.089 4.667-4.667 0-0.322-0.033-0.637-0.095-0.94l0.005 0.030c-0.378-1.853-1.814-3.289-3.637-3.662l-0.030-0.005z"></path>
</symbol>
</defs>
</svg>

